# xmcd CD database file
#
# Track frame offsets:
#	183
#	17675
#	30728
#	45160
#	57705
#	69733
#	83225
#	92948
#	108295
#	123523
#	134013
#	148433
#	158723
#	173720
#
# Disc length: 2469 seconds
#
# Revision: 3
# Processed by: cddbd v1.5.1PL0 Copyright (c) Steve Scherf et al.
# Submitted via: CDex 1.40Release
#
DISCID=c809a30e
DTITLE=Kenny Rogers - Somthings's Burnin'
DYEAR=1998
DGENRE=Country
TTITLE0=Something's Burnin
TTITLE1=Ruby Don't Take Your Love To Town
TTITLE2=Sunshine
TTITLE3=Reuben James
TTITLE4=Elvira
TTITLE5=Shine On Ruby Mountain
TTITLE6=Where Does Rosie Go
TTITLE7=For The Good Times
TTITLE8=Tulsa Turnaround
TTITLE9=We All Got To Help Each Other
TTITLE10=After All (I Live My Life)
TTITLE11=Trying Just As Hard As I Can
TTITLE12=All God's Lonley Children
TTITLE13=Me And Bobby McGee
EXTD=YEAR: 1998 ID3G: 2
EXTT0=
EXTT1=
EXTT2=
EXTT3=
EXTT4=
EXTT5=
EXTT6=
EXTT7=
EXTT8=
EXTT9=
EXTT10=
EXTT11=
EXTT12=
EXTT13=
PLAYORDER=
